# xmcd
#
# Track frame offsets: 
#        150
#        23185
#        39617
#        54817
#        71881
#        88710
#        112156
#        134841
#        150056
#        165283
#
# Disc length: 2362 seconds
#
# Revision: 1
# Processed by: cddbd v1.5.2PL0 Copyright (c) Steve Scherf et al.
# Submitted via: ExactAudioCopyFreeDBPlugin 1.0
#
DISCID=7d09380a
DTITLE=Various Artist - Nova 24h - CD 07 - 6h c'est encore la nuit
DYEAR=2009
DGENRE=Compilation
TTITLE0=Flox - Killing U and Me
TTITLE1=Nancy Holloway - Hurt So Bad
TTITLE2=Money Mark - Summer Blue
TTITLE3=Hercules and Love Affair - Raise Me Up
TTITLE4=Dwilt Sharp feat. Lorett Fleur - I Need You Close
TTITLE5=Tesfa Maryam Kidané - Heywèté
TTITLE6=La Maison Tellier - Cul De Sac
TTITLE7=Young Senators - Jungle
TTITLE8=Johnny Osbourne - What A La La
TTITLE9=Louis Prima - (Nothing's Too Good) For My Baby
EXTD=
EXTT0=
EXTT1=
EXTT2=
EXTT3=
EXTT4=
EXTT5=
EXTT6=
EXTT7=
EXTT8=
EXTT9=
PLAYORDER=
